<?xml version="1.0" standalone="no"?>
<!DOCTYPE svg PUBLIC "-//W3C//DTD SVG 20010904//EN"
 "http://www.w3.org/TR/2001/REC-SVG-20010904/DTD/svg10.dtd">
<svg version="1.0" xmlns="http://www.w3.org/2000/svg"
 width="206.774408pt" height="183.950514pt" viewBox="0 0 206.774408 183.950514"
 preserveAspectRatio="xMidYMid meet">
<metadata>
Created by potrace 1.12, written by Peter Selinger 2001-2015
</metadata>
<g transform="translate(-309.923169,183.950514) scale(0.100000,-0.100000)"
fill="#0355cc" stroke="none">
<path d="M3815 1682 c-305 -154 -345 -181 -299 -199 11 -4 118 44 315 143
l299 149 299 -149 c188 -94 304 -147 315 -143 9 4 16 15 16 27 0 16 -56 48
-310 175 -170 85 -313 155 -317 155 -5 -1 -147 -72 -318 -158z"/>
<path d="M3900 1602 l-215 -107 -3 -137 -3 -137 31 10 30 11 0 107 0 106 195
98 195 97 197 -98 198 -97 2 -185 c2 -102 1 -195 -2 -207 -5 -22 -9 -23 -125
-23 l-120 0 0 134 c0 102 -3 136 -14 145 -9 8 -56 11 -142 9 l-129 -3 -3 -103
c-3 -98 -1 -105 22 -133 14 -16 28 -45 32 -64 l6 -35 263 0 c230 0 264 2 269
16 9 22 7 467 -2 480 -10 17 -430 224 -450 223 -9 0 -114 -49 -232 -107z m318
-444 l-3 -113 -80 0 -80 0 -3 113 -3 112 86 0 86 0 -3 -112z"/>
<path d="M4062 1538 c-17 -17 -16 -113 2 -127 9 -7 40 -11 78 -9 l63 3 0 70 0
70 -65 3 c-42 2 -70 -2 -78 -10z m88 -63 c0 -8 -9 -15 -20 -15 -11 0 -20 7
-20 15 0 8 9 15 20 15 11 0 20 -7 20 -15z"/>
<path d="M3692 1150 c-18 -11 -35 -27 -38 -35 -4 -8 -18 -15 -34 -15 -64 0
-131 -84 -116 -145 4 -14 19 -40 35 -58 l29 -32 536 -3 c475 -2 537 -1 542 13
4 8 1 22 -6 30 -11 13 -62 15 -340 15 l-328 0 5 43 c6 53 -14 97 -54 117 -15
8 -45 29 -65 48 -48 45 -116 54 -166 22z m103 -46 c8 -4 22 -19 31 -35 8 -16
22 -29 32 -29 52 0 80 -63 45 -102 -14 -16 -33 -18 -160 -18 -130 0 -145 2
-163 20 -45 45 -7 103 63 98 34 -2 43 1 52 18 26 51 55 65 100 48z"/>
<path d="M3161 967 c-13 -6 -33 -24 -44 -39 -23 -31 -23 -55 -3 -386 14 -229
19 -252 65 -290 16 -13 168 -88 306 -152 l70 -31 -36 -19 c-20 -11 -39 -26
-42 -35 -5 -12 2 -15 35 -15 31 0 89 22 226 85 102 47 190 84 196 82 6 -2 25
-39 42 -83 30 -74 34 -79 64 -82 28 -3 32 -1 26 15 -59 159 -80 202 -107 213
-20 9 -33 9 -47 1 -26 -14 -28 -10 -37 64 -3 33 -14 70 -23 81 -9 12 -100 65
-202 119 -154 81 -193 98 -232 99 -57 1 -97 -25 -117 -77 -12 -32 -11 -40 5
-73 16 -31 38 -48 124 -96 108 -60 145 -68 145 -33 0 15 -27 35 -107 80 -59
33 -109 67 -111 75 -8 30 11 58 43 65 26 6 58 -8 217 -92 207 -109 189 -90
207 -209 l6 -41 -103 -47 -103 -48 -150 72 c-82 40 -171 82 -199 95 -90 40
-87 29 -104 345 -16 305 -16 310 40 310 33 0 35 -5 49 -125 5 -49 12 -109 16
-132 l5 -43 30 15 c22 12 28 21 24 38 -2 12 -10 74 -16 137 -11 104 -15 117
-40 142 -30 31 -76 37 -118 15z"/>
<path d="M4990 953 c-28 -27 -31 -35 -45 -163 l-16 -134 23 -18 c13 -10 26
-18 29 -18 4 0 12 53 19 118 16 161 21 176 51 180 15 2 32 -5 43 -17 17 -18
17 -32 2 -288 -10 -160 -21 -278 -29 -292 -8 -17 -54 -44 -157 -93 -80 -38
-172 -83 -206 -100 l-61 -31 -99 46 -99 46 2 48 c4 108 -5 99 187 200 96 51
186 95 200 99 38 9 78 -19 74 -54 -3 -23 -20 -36 -110 -87 -85 -47 -108 -65
-108 -81 0 -12 6 -24 13 -27 17 -6 232 112 252 139 17 23 19 74 3 108 -14 33
-47 54 -95 62 -35 5 -56 -3 -209 -81 -261 -135 -254 -129 -269 -247 l-6 -47
-30 11 c-47 16 -66 -5 -114 -125 l-43 -107 32 0 c32 0 34 2 66 85 18 47 38 85
45 85 6 0 94 -38 194 -85 133 -62 194 -85 223 -85 47 0 47 15 -1 47 l-32 22
38 19 c21 11 94 45 163 77 139 64 183 93 205 134 10 20 19 111 31 308 15 258
15 283 0 311 -33 64 -115 81 -166 35z"/>
<path d="M3708 673 c-3 -77 -3 -78 -30 -81 -20 -2 -28 -9 -28 -23 0 -27 63
-26 90 1 17 17 20 33 20 100 0 78 -1 80 -25 80 -23 0 -24 -3 -27 -77z"/>
<path d="M3865 725 c-20 -19 -25 -34 -25 -75 0 -74 28 -100 110 -100 82 0 110
26 110 100 0 74 -28 100 -110 100 -51 0 -65 -4 -85 -25z m126 -25 c22 -12 27
-78 7 -98 -16 -16 -80 -16 -96 0 -19 19 -15 85 6 97 22 13 58 14 83 1z"/>
<path d="M4150 650 c0 -93 1 -100 20 -100 18 0 20 7 20 60 0 33 4 60 9 60 4 0
29 -27 55 -60 35 -44 54 -60 72 -60 24 0 24 1 24 100 0 99 0 100 -25 100 -23
0 -24 -4 -27 -62 l-3 -63 -50 62 c-35 44 -57 63 -72 63 -22 0 -23 -3 -23 -100z"/>
<path d="M4471 661 c-22 -49 -41 -94 -41 -100 0 -19 38 -12 45 9 5 17 15 20
60 20 44 0 56 -4 65 -20 9 -17 50 -29 50 -15 0 3 -20 48 -44 100 -38 82 -48
95 -69 95 -21 0 -30 -13 -66 -89z m83 10 c9 -16 12 -31 9 -35 -10 -10 -53 -7
-53 4 0 10 22 60 26 60 2 0 10 -13 18 -29z"/>
</g>
</svg>
